<svg width="32" height="31" viewBox="0 0 32 31" fill="none" xmlns="http://www.w3.org/2000/svg">
<path d="M16.0002 2.52686C10.4002 2.52686 5.33301 6.59372 5.33301 12.8842C5.33301 16.9011 8.60021 21.6258 15.1202 27.069C15.3666 27.2705 15.6812 27.3813 16.0066 27.3813C16.332 27.3813 16.6466 27.2705 16.893 27.069C23.4002 21.6258 26.6674 16.9011 26.6674 12.8842C26.6674 6.59372 21.6002 2.52686 16.0002 2.52686ZM16.0002 15.1579C14.533 15.1579 13.333 14.0211 13.333 12.6311C13.333 11.2411 14.533 10.1043 16.0002 10.1043C17.4674 10.1043 18.6674 11.2411 18.6674 12.6311C18.6674 14.0211 17.4674 15.1579 16.0002 15.1579Z" fill="url(#paint0_linear_602_594)"/>
<defs>
<linearGradient id="paint0_linear_602_594" x1="16.0002" y1="2.52686" x2="16.0002" y2="27.3813" gradientUnits="userSpaceOnUse">
<stop stop-color="#4892BC"/>
<stop offset="1" stop-color="#1F668D"/>
</linearGradient>
</defs>
</svg>
